<svg version="1.1" id="Layer_1" xmlns="http://www.w3.org/2000/svg" xmlns:xlink="http://www.w3.org/1999/xlink" x="0px" y="0px"
	 width="100%" viewBox="0 0 1024 1024" enable-background="new 0 0 1024 1024" xml:space="preserve">
<path fill="#000000" opacity="1.000000" stroke="none" 
	d="
M455.507812,605.790649 
	C431.733734,614.167358 408.669495,597.486145 406.531189,575.505737 
	C405.120697,561.006714 410.292389,549.178406 422.334137,541.070129 
	C434.528992,532.858826 447.571228,532.364990 460.656494,539.342407 
	C470.244080,544.454712 475.848206,552.687744 478.080902,563.118164 
	C478.849274,566.707886 480.526703,567.745789 483.866333,567.673157 
	C498.677063,567.350830 513.531616,568.525146 528.294922,566.709778 
	C542.390137,564.976562 555.175903,560.472595 564.373840,548.716003 
	C572.298889,538.586365 572.934326,523.503967 565.637146,513.783203 
	C561.884460,508.784180 560.437927,508.716522 556.409546,513.351501 
	C546.579712,524.661499 529.948181,528.074768 516.835693,521.473145 
	C502.966644,514.490601 495.471924,498.751129 499.350647,483.708282 
	C500.480225,479.327362 499.693390,477.580231 495.479187,475.510498 
	C481.005066,468.401703 465.781433,462.619202 452.686768,452.922638 
	C434.710815,439.611511 424.390259,421.950012 422.551239,399.466980 
	C420.795746,378.005371 425.009247,358.364746 439.973785,342.068085 
	C450.797760,330.280579 464.863068,324.775055 480.213226,321.596283 
	C489.689758,319.633850 499.469574,320.216003 508.835938,317.621124 
	C510.737579,317.094269 512.512756,317.814941 513.608276,319.556000 
	C514.676636,321.253998 514.658813,323.121307 513.547241,324.746796 
	C512.219849,326.687805 510.351288,327.099243 507.905884,326.949524 
	C487.442963,325.696625 467.983459,329.211456 451.285492,341.725586 
	C436.757477,352.613434 430.360229,368.327148 429.431488,385.976257 
	C427.711029,418.670471 442.469666,441.799988 471.764587,455.948761 
	C481.061951,460.439087 490.358948,464.933563 499.576874,469.583221 
	C502.769806,471.193756 504.990601,471.240326 507.844696,468.402191 
	C518.627686,457.679474 533.993042,455.761139 547.444458,462.966766 
	C559.670776,469.516174 566.367432,483.657471 563.906921,498.115570 
	C563.541382,500.263763 563.262451,502.049133 565.318481,503.386383 
	C584.029846,515.556519 582.175293,547.350586 560.726257,562.409485 
	C550.130127,569.848755 538.306152,573.081543 525.704041,574.276978 
	C512.410706,575.538086 499.074066,575.112183 485.758667,574.996582 
	C481.237671,574.957397 479.037811,575.985046 477.832794,580.832397 
	C474.878357,592.717163 467.293213,600.994629 455.507812,605.790649 
z"/>
<path fill="#000000" opacity="1.000000" stroke="none" 
	d="
M624.047241,328.162781 
	C633.484009,350.548492 622.546753,373.679321 600.104370,379.517181 
	C581.001648,384.486298 560.518372,372.103912 556.051819,352.504425 
	C555.163757,348.607635 553.767334,347.181580 549.856873,347.303040 
	C534.549927,347.778473 519.182617,346.218018 503.929413,348.336700 
	C490.150818,350.250580 477.766052,354.879242 469.694489,367.290649 
	C463.185699,377.299011 463.247406,392.363647 469.985443,400.692566 
	C473.298676,404.788086 474.566620,404.804657 477.976318,400.796814 
	C488.129272,388.863068 505.293030,385.454956 519.316101,392.588318 
	C532.772400,399.433380 539.637695,415.051300 535.462585,430.312225 
	C534.371399,434.300873 535.556702,435.871979 538.965393,437.504852 
	C554.125977,444.767212 569.764038,451.227386 583.457703,461.173950 
	C601.259644,474.104584 611.269470,491.555023 613.447998,513.637634 
	C614.921021,528.569824 613.273743,542.905396 607.030518,556.530945 
	C597.322998,577.717224 579.609497,588.364014 557.686829,593.262329 
	C549.849487,595.013428 541.869751,595.332703 533.895447,595.761963 
	C531.576538,595.886719 529.293152,596.129395 527.042847,596.953735 
	C524.698303,597.812561 522.408020,597.389832 520.786926,595.208374 
	C519.699402,593.744995 519.515808,592.148560 520.396667,590.516785 
	C521.679871,588.139648 523.860901,587.300232 526.319214,587.777710 
	C538.444458,590.133179 550.193054,587.819214 561.804382,584.787842 
	C586.587463,578.317688 602.588806,559.700684 605.812988,534.251770 
	C608.788330,510.767761 603.726379,489.837860 586.234924,473.002991 
	C574.492065,461.701019 559.315369,455.986053 545.294983,448.346313 
	C536.520325,443.564972 530.054260,441.527405 520.822815,449.516571 
	C510.600403,458.363342 497.188873,456.948822 485.766052,449.531219 
	C473.948914,441.857513 469.107544,430.400635 471.157806,416.349609 
	C471.522705,413.848938 471.745117,411.824402 469.461792,410.152527 
	C451.458710,396.970032 454.275574,364.998657 475.000854,351.142670 
	C487.074402,343.070801 500.768036,340.483734 514.881470,339.954315 
	C526.531250,339.517334 538.212524,339.745605 549.875610,339.936279 
	C553.598022,339.997131 555.375610,339.067871 556.422302,335.100952 
	C560.403137,320.013947 572.514526,309.405731 586.828308,307.773804 
	C602.673462,305.967285 616.144104,313.259949 624.047241,328.162781 
z"/>
<path fill="#000000" opacity="1.000000" stroke="none" 
	d="
M562.920776,668.507568 
	C569.005737,677.656494 572.337463,687.887634 578.752747,697.430542 
	C582.987427,688.950684 586.892151,681.088867 590.836975,673.247192 
	C593.451843,668.049133 598.032166,666.241211 603.557861,667.972351 
	C605.631897,668.622131 605.908997,670.137451 605.917419,671.846436 
	C605.989258,686.497986 605.989990,701.150085 606.098572,715.801270 
	C606.137390,721.038574 602.222534,718.993713 599.663696,719.494385 
	C596.362671,720.140259 595.657532,718.328613 595.676636,715.516357 
	C595.738953,706.365295 595.699951,697.213562 594.802002,687.667725 
	C591.760132,693.744568 588.869934,699.904236 585.616028,705.865295 
	C583.837646,709.123230 583.742493,714.149109 578.278442,714.167297 
	C572.897949,714.185181 573.151367,709.198608 571.471497,706.096741 
	C568.324219,700.285095 565.521179,694.287109 562.156067,687.525024 
	C560.771179,697.193970 561.351990,705.959656 561.484924,714.685730 
	C561.542786,718.486450 560.634827,720.120911 556.552124,720.072632 
	C552.728149,720.027344 551.406067,718.918945 551.448608,714.876465 
	C551.600586,700.411133 551.369019,685.940979 551.190125,671.473755 
	C551.158630,668.932068 552.093628,667.687073 554.645142,667.806885 
	C557.294556,667.931274 559.941650,668.104370 562.920776,668.507568 
z"/>
<path fill="#000000" opacity="1.000000" stroke="none" 
	d="
M455.222656,710.734802 
	C449.077332,702.740784 443.143524,695.036133 437.209717,687.331482 
	C436.859955,687.441284 436.510223,687.551086 436.160461,687.660889 
	C436.160461,696.417358 436.061096,705.175537 436.207672,713.929626 
	C436.269257,717.607727 435.656586,720.003296 431.159973,719.947266 
	C426.770477,719.892517 425.584686,718.011230 425.655243,713.809448 
	C425.875824,700.668213 425.663696,687.520142 425.745453,674.375549 
	C425.758820,672.228394 424.591675,669.168823 427.586853,668.286682 
	C430.765228,667.350464 434.310547,667.158569 436.796326,670.174744 
	C439.650574,673.638000 442.309204,677.262390 445.057281,680.813293 
	C449.931793,687.111816 454.809692,693.407715 459.861511,699.931091 
	C461.954559,698.390320 461.547516,696.308228 461.569580,694.473938 
	C461.657745,687.153564 461.801544,679.828186 461.617645,672.512390 
	C461.517548,668.530579 463.558228,667.831726 466.874512,667.788025 
	C470.264587,667.743408 472.169739,668.582092 472.135284,672.498352 
	C472.013855,686.307861 472.143097,700.119446 472.084229,713.929810 
	C472.074951,716.110474 472.925323,719.181274 469.779236,719.764587 
	C466.619202,720.350464 463.065948,720.955261 460.572388,717.775696 
	C458.827301,715.550476 457.144653,713.276428 455.222656,710.734802 
z"/>
<path fill="#000000" opacity="1.000000" stroke="none" 
	d="
M697.369019,706.987549 
	C697.369385,709.484253 697.549316,711.504211 697.320618,713.476746 
	C697.059448,715.730713 698.657593,719.024902 695.081299,719.773315 
	C691.669006,720.487366 688.209473,720.588562 685.634827,717.117920 
	C678.987671,708.157715 672.158325,699.332520 665.381775,690.468689 
	C664.788879,689.693237 664.049255,689.030029 662.880798,687.785156 
	C661.756897,691.339722 662.271423,694.433350 662.219177,697.436768 
	C662.120667,703.099304 661.842346,708.789001 662.259033,714.421570 
	C662.675110,720.045288 659.224670,719.317017 655.629517,719.591431 
	C651.322449,719.920105 651.607605,717.286072 651.607971,714.536682 
	C651.609802,700.876587 651.553772,687.216125 651.655884,673.556824 
	C651.670410,671.624451 650.383118,668.684265 653.416809,668.048950 
	C656.257812,667.454041 659.499695,667.020264 661.841614,669.638428 
	C663.614868,671.620911 665.215393,673.760925 666.847656,675.865906 
	C672.154419,682.709595 677.433594,689.574585 682.741699,696.417236 
	C683.531189,697.434937 684.101379,698.773743 685.797546,698.815002 
	C687.441772,697.206299 686.779846,695.082214 686.808594,693.192322 
	C686.909668,686.530518 686.966309,679.862793 686.788025,673.204102 
	C686.690247,669.551636 687.613525,667.648804 691.772461,667.693298 
	C695.647705,667.734863 697.513733,668.622131 697.417480,673.007385 
	C697.172668,684.163147 697.356079,695.328430 697.369019,706.987549 
z"/>
<path fill="#000000" opacity="1.000000" stroke="none" 
	d="
M750.976440,671.777954 
	C761.312683,678.837585 765.502441,689.185181 762.657104,699.985840 
	C759.502747,711.959473 751.235413,718.764771 737.650757,719.878784 
	C731.372925,720.393494 725.021667,719.987427 718.704285,720.055237 
	C715.712036,720.087402 714.656433,718.632141 714.669922,715.735962 
	C714.737915,701.102783 714.696960,686.469055 714.697998,671.835571 
	C714.698120,669.921997 714.813110,667.824341 717.356750,667.888489 
	C728.553772,668.170898 740.040283,666.004883 750.976440,671.777954 
M725.344238,704.241333 
	C724.683472,708.643188 726.675476,710.371094 730.971375,709.970764 
	C732.621643,709.817078 734.301025,710.008240 735.965271,709.966675 
	C745.605347,709.725769 751.706543,703.970764 752.222595,694.660034 
	C752.737610,685.367981 747.266968,678.861572 737.716125,677.618286 
	C735.252808,677.297546 732.721008,677.543091 730.235168,677.345825 
	C726.538757,677.052490 725.198792,678.664246 725.292175,682.317688 
	C725.470947,689.308716 725.340881,696.307617 725.344238,704.241333 
z"/>
<path fill="#000000" opacity="1.000000" stroke="none" 
	d="
M500.215912,682.312317 
	C501.893829,678.638550 503.629974,675.383484 504.841827,671.943726 
	C506.176941,668.154175 508.866119,667.749390 512.311340,667.697327 
	C515.877808,667.643372 517.600769,669.137695 518.988464,672.323242 
	C525.300842,686.813599 531.864807,701.194214 538.335510,715.615601 
	C538.803772,716.659180 539.468079,717.669373 539.064697,718.874756 
	C532.032593,721.711060 528.317749,720.410461 525.908447,713.694092 
	C524.427124,709.564636 522.045532,707.925964 517.709412,708.258240 
	C513.737244,708.562561 509.689697,708.640259 505.735840,708.231995 
	C501.038727,707.747070 498.699036,709.776978 497.311218,714.005737 
	C496.534241,716.373291 496.370667,719.710449 492.909729,719.967590 
	C490.329529,720.159363 487.114044,721.161621 485.249146,719.133972 
	C483.366333,717.086853 485.933624,714.814514 486.787506,712.811096 
	C491.093109,702.709167 495.604095,692.694702 500.215912,682.312317 
M509.222137,686.905701 
	C507.964142,690.700073 505.322083,694.037170 505.031677,698.517212 
	C509.777618,698.804443 514.109070,699.570007 518.893127,697.948486 
	C516.802063,692.476868 515.221558,687.402954 512.336670,682.957153 
	C510.305237,683.697998 510.175476,685.184753 509.222137,686.905701 
z"/>
<path fill="#000000" opacity="1.000000" stroke="none" 
	d="
M396.160095,719.662964 
	C379.829163,722.445862 366.442932,714.961670 362.525543,701.226746 
	C357.685272,684.255920 369.766937,668.074158 387.401917,667.592041 
	C394.299927,667.403442 400.633514,668.668274 406.370209,672.556885 
	C408.411011,673.940186 410.398193,675.389343 407.959503,678.053711 
	C406.099457,680.085876 405.055542,683.722473 400.972076,680.913147 
	C393.928802,676.067444 386.608246,675.899841 379.530487,680.820984 
	C372.243500,685.887512 370.329803,694.700012 374.649994,701.979858 
	C379.303253,709.821045 388.828247,712.822876 396.738678,709.045532 
	C398.783081,708.069397 399.876221,706.718445 399.814270,704.422729 
	C399.764832,702.591431 399.998627,700.738464 399.803711,698.927795 
	C399.367035,694.872498 400.843781,693.467468 405.092926,693.408020 
	C409.450500,693.347168 410.255005,695.273438 409.999878,698.818970 
	C409.916382,699.978943 410.002899,701.151001 410.006409,702.317505 
	C410.045959,715.425842 409.558105,716.050293 396.160095,719.662964 
z"/>
<path fill="#000000" opacity="1.000000" stroke="none" 
	d="
M284.524109,704.641846 
	C287.121521,703.933777 288.464508,705.752563 290.135925,706.696655 
	C294.864319,709.367676 299.803467,711.221497 305.328918,710.612732 
	C308.335815,710.281433 311.003143,708.874817 311.399872,705.649231 
	C311.762543,702.700256 309.246796,701.346375 306.882751,700.399048 
	C301.649445,698.302063 295.917053,697.631653 290.935089,694.777832 
	C283.070862,690.272888 281.111237,681.061157 286.573730,673.879578 
	C289.256378,670.352661 293.176849,668.619385 297.267487,667.995239 
	C304.618378,666.873779 311.806824,667.838257 318.670959,671.071045 
	C322.177856,672.722656 321.515930,674.755615 320.254272,677.488220 
	C318.967316,680.275452 317.734253,682.053528 314.288055,680.271179 
	C311.037384,678.589905 307.511047,677.527527 303.801758,677.335693 
	C300.373749,677.158386 296.502716,677.128113 295.588409,681.169006 
	C294.619385,685.451965 298.493164,686.584656 301.632996,687.708435 
	C304.604187,688.771912 307.656799,689.605835 310.640717,690.635925 
	C319.856384,693.817444 323.942627,698.977295 323.114197,706.295044 
	C322.275574,713.703247 315.499054,719.436951 306.555695,720.278625 
	C300.130615,720.883362 293.998505,719.883484 288.090607,717.188599 
	C279.772980,713.394531 279.461182,712.579834 284.524109,704.641846 
z"/>
<path fill="#000000" opacity="1.000000" stroke="none" 
	d="
M623.582581,680.003418 
	C623.586487,677.536194 623.746826,675.525879 623.557739,673.549011 
	C623.214050,669.954956 623.533569,667.598511 628.300964,667.638916 
	C632.892761,667.677795 634.378723,669.158020 634.284363,673.731995 
	C634.027161,686.197144 634.200378,698.670898 634.185303,711.141296 
	C634.174133,720.366333 633.483032,720.874573 623.804626,718.646179 
	C623.048340,705.976318 622.939453,693.230713 623.582581,680.003418 
z"/>
<path fill="#000000" opacity="1.000000" stroke="none" 
	d="
M337.160706,669.542664 
	C339.650177,667.099182 342.413330,667.999512 345.003296,668.020508 
	C347.345337,668.039490 347.395264,669.825623 347.392303,671.595093 
	C347.367432,686.425659 347.255127,701.257507 347.428894,716.085938 
	C347.473450,719.890442 345.384094,720.118103 342.689423,720.010010 
	C339.901184,719.898193 336.748810,720.348206 336.779877,715.937500 
	C336.887787,700.610962 336.918945,685.283997 337.160706,669.542664 
z"/>
</svg>